<svg width="25" height="24" viewBox="0 0 25 24" fill="none" xmlns="http://www.w3.org/2000/svg">
<g id="Frame" clip-path="url(#clip0_1854_3009)">
<path id="Vector" d="M12.502 1.99976C6.97895 1.99976 2.50195 6.47676 2.50195 11.9998C2.50195 16.9908 6.15895 21.1278 10.94 21.8788V14.8898H8.39995V11.9998H10.94V9.79676C10.94 7.29076 12.432 5.90676 14.717 5.90676C15.811 5.90676 16.955 6.10176 16.955 6.10176V8.56176H15.695C14.452 8.56176 14.065 9.33276 14.065 10.1238V11.9998H16.838L16.395 14.8898H14.065V21.8788C18.845 21.1288 22.502 16.9898 22.502 11.9998C22.502 6.47676 18.025 1.99976 12.502 1.99976Z" fill="#F47920"/>
</g>
<defs>
<clipPath id="clip0_1854_3009">
<rect width="24" height="24" fill="white" transform="translate(0.5)"/>
</clipPath>
</defs>
</svg>
