<svg width="25" height="24" viewBox="0 0 25 24" fill="none" xmlns="http://www.w3.org/2000/svg">
<g id="Frame" clip-path="url(#clip0_1854_3015)">
<path id="Vector" d="M12.502 1.99976C15.219 1.99976 15.558 2.00976 16.624 2.05976C17.689 2.10976 18.414 2.27676 19.052 2.52476C19.712 2.77876 20.268 3.12276 20.824 3.67776C21.3324 4.17765 21.7259 4.78234 21.977 5.44976C22.224 6.08676 22.392 6.81276 22.442 7.87776C22.489 8.94376 22.502 9.28276 22.502 11.9998C22.502 14.7168 22.492 15.0558 22.442 16.1218C22.392 17.1868 22.224 17.9118 21.977 18.5498C21.7266 19.2175 21.3331 19.8224 20.824 20.3218C20.3239 20.8301 19.7193 21.2235 19.052 21.4748C18.415 21.7218 17.689 21.8898 16.624 21.9398C15.558 21.9868 15.219 21.9998 12.502 21.9998C9.78495 21.9998 9.44595 21.9898 8.37995 21.9398C7.31495 21.8898 6.58995 21.7218 5.95195 21.4748C5.28428 21.2242 4.67948 20.8307 4.17995 20.3218C3.67136 19.8219 3.27788 19.2172 3.02695 18.5498C2.77895 17.9128 2.61195 17.1868 2.56195 16.1218C2.51495 15.0558 2.50195 14.7168 2.50195 11.9998C2.50195 9.28276 2.51195 8.94376 2.56195 7.87776C2.61195 6.81176 2.77895 6.08776 3.02695 5.44976C3.27719 4.78194 3.67076 4.17708 4.17995 3.67776C4.67962 3.16899 5.28438 2.77549 5.95195 2.52476C6.58995 2.27676 7.31395 2.10976 8.37995 2.05976C9.44595 2.01276 9.78495 1.99976 12.502 1.99976ZM12.502 6.99976C11.1759 6.99976 9.9041 7.52654 8.96642 8.46422C8.02874 9.4019 7.50195 10.6737 7.50195 11.9998C7.50195 13.3258 8.02874 14.5976 8.96642 15.5353C9.9041 16.473 11.1759 16.9998 12.502 16.9998C13.828 16.9998 15.0998 16.473 16.0375 15.5353C16.9752 14.5976 17.502 13.3258 17.502 11.9998C17.502 10.6737 16.9752 9.4019 16.0375 8.46422C15.0998 7.52654 13.828 6.99976 12.502 6.99976ZM19.002 6.74976C19.002 6.41824 18.8703 6.10029 18.6358 5.86587C18.4014 5.63145 18.0835 5.49976 17.752 5.49976C17.4204 5.49976 17.1025 5.63145 16.8681 5.86587C16.6336 6.10029 16.502 6.41824 16.502 6.74976C16.502 7.08128 16.6336 7.39922 16.8681 7.63364C17.1025 7.86806 17.4204 7.99976 17.752 7.99976C18.0835 7.99976 18.4014 7.86806 18.6358 7.63364C18.8703 7.39922 19.002 7.08128 19.002 6.74976ZM12.502 8.99976C13.2976 8.99976 14.0607 9.31583 14.6233 9.87844C15.1859 10.441 15.502 11.2041 15.502 11.9998C15.502 12.7954 15.1859 13.5585 14.6233 14.1211C14.0607 14.6837 13.2976 14.9998 12.502 14.9998C11.7063 14.9998 10.9432 14.6837 10.3806 14.1211C9.81802 13.5585 9.50195 12.7954 9.50195 11.9998C9.50195 11.2041 9.81802 10.441 10.3806 9.87844C10.9432 9.31583 11.7063 8.99976 12.502 8.99976Z" fill="#F47920"/>
</g>
<defs>
<clipPath id="clip0_1854_3015">
<rect width="24" height="24" fill="white" transform="translate(0.5)"/>
</clipPath>
</defs>
</svg>
