<svg width="25" height="24" viewBox="0 0 25 24" fill="none" xmlns="http://www.w3.org/2000/svg">
<g id="Frame" clip-path="url(#clip0_1854_3018)">
<path id="Vector" d="M22.045 6.49824C22.502 8.28024 22.502 12.0002 22.502 12.0002C22.502 12.0002 22.502 15.7202 22.045 17.5022C21.791 18.4872 21.048 19.2622 20.107 19.5242C18.398 20.0002 12.502 20.0002 12.502 20.0002C12.502 20.0002 6.60895 20.0002 4.89695 19.5242C3.95195 19.2582 3.20995 18.4842 2.95895 17.5022C2.50195 15.7202 2.50195 12.0002 2.50195 12.0002C2.50195 12.0002 2.50195 8.28024 2.95895 6.49824C3.21295 5.51324 3.95595 4.73824 4.89695 4.47624C6.60895 4.00024 12.502 4.00024 12.502 4.00024C12.502 4.00024 18.398 4.00024 20.107 4.47624C21.052 4.74224 21.794 5.51624 22.045 6.49824ZM10.502 15.5002L16.502 12.0002L10.502 8.50024V15.5002Z" fill="#F47920"/>
</g>
<defs>
<clipPath id="clip0_1854_3018">
<rect width="24" height="24" fill="white" transform="translate(0.5)"/>
</clipPath>
</defs>
</svg>
