<svg width="24" height="25" viewBox="0 0 24 25" fill="none" xmlns="http://www.w3.org/2000/svg">
<g id="Frame">
<path id="Vector" d="M9.97308 18.915H14.0269C14.1589 17.7134 14.7721 16.7215 15.7676 15.6376C15.8797 15.5156 16.5988 14.7714 16.6841 14.6651C17.5318 13.6081 18 12.3 18 10.915C18 7.60133 15.3137 4.91504 12 4.91504C8.68629 4.91504 6 7.60133 6 10.915C6 12.2993 6.46774 13.6067 7.31462 14.6634C7.40004 14.77 8.12081 15.5162 8.23154 15.6368C9.22766 16.7214 9.84103 17.7134 9.97308 18.915ZM14 20.915H10V21.915H14V20.915ZM5.75395 15.9142C4.65645 14.5447 4 12.8065 4 10.915C4 6.49676 7.58172 2.91504 12 2.91504C16.4183 2.91504 20 6.49676 20 10.915C20 12.8075 19.3428 14.5465 18.2443 15.9164C17.624 16.6898 16 17.915 16 19.415V21.915C16 23.0196 15.1046 23.915 14 23.915H10C8.89543 23.915 8 23.0196 8 21.915V19.415C8 17.915 6.37458 16.6886 5.75395 15.9142ZM13 10.9198H15.5L11 16.9198V12.9198H8.5L13 6.91504V10.9198Z" fill="#F47920"/>
</g>
</svg>
