<svg width="52" height="52" viewBox="0 0 52 52" fill="none" xmlns="http://www.w3.org/2000/svg">
<rect width="52" height="52" rx="26" fill="#F47920" fill-opacity="0.65"/>
<g clip-path="url(#clip0_2590_4967)">
<path d="M35.22 26.5199L21.9713 35.3524C21.8771 35.415 21.7678 35.451 21.6549 35.4564C21.5419 35.4618 21.4297 35.4364 21.33 35.3831C21.2303 35.3297 21.147 35.2503 21.0889 35.1533C21.0308 35.0564 21.0001 34.9455 21 34.8324V17.1674C21.0001 17.0543 21.0308 16.9434 21.0889 16.8465C21.147 16.7495 21.2303 16.6701 21.33 16.6167C21.4297 16.5634 21.5419 16.538 21.6549 16.5434C21.7678 16.5488 21.8771 16.5848 21.9713 16.6474L35.22 25.4799C35.3056 25.537 35.3758 25.6143 35.4243 25.705C35.4729 25.7957 35.4983 25.897 35.4983 25.9999C35.4983 26.1028 35.4729 26.2041 35.4243 26.2948C35.3758 26.3855 35.3056 26.4628 35.22 26.5199Z" fill="white"/>
</g>
<defs>
<clipPath id="clip0_2590_4967">
<rect width="30" height="30" fill="white" transform="translate(11 11)"/>
</clipPath>
</defs>
</svg>
